<svg width="32" height="24" viewBox="0 0 32 24" fill="none" xmlns="http://www.w3.org/2000/svg">
<rect width="32" height="24" rx="4" fill="white"/>
<rect x="0.5" y="0.5" width="31" height="23" rx="3.5" stroke="black" stroke-opacity="0.16"/>
<path fill-rule="evenodd" clip-rule="evenodd" d="M9.95025 15.7582H7.89051L6.34596 9.69237C6.27264 9.41334 6.11698 9.16667 5.88801 9.0504C5.31659 8.75823 4.68691 8.5257 4 8.40843V8.1749H7.31808C7.77602 8.1749 8.11948 8.5257 8.17672 8.93313L8.97813 13.3086L11.0369 8.1749H13.0394L9.95025 15.7582ZM14.1842 15.7582H12.239L13.8408 8.1749H15.786L14.1842 15.7582ZM18.3027 10.2757C18.3599 9.86728 18.7034 9.63374 19.1041 9.63374C19.7338 9.57511 20.4197 9.69238 20.9921 9.98354L21.3356 8.35081C20.7631 8.11727 20.1335 8 19.562 8C17.674 8 16.3002 9.05041 16.3002 10.5082C16.3002 11.6173 17.2733 12.1996 17.9602 12.5504C18.7034 12.9002 18.9896 13.1338 18.9324 13.4835C18.9324 14.0082 18.3599 14.2418 17.7885 14.2418C17.1016 14.2418 16.4147 14.0669 15.786 13.7747L15.4426 15.4085C16.1295 15.6996 16.8726 15.8169 17.5595 15.8169C19.6765 15.8745 20.9921 14.8251 20.9921 13.25C20.9921 11.2665 18.3027 11.1502 18.3027 10.2757ZM27.8 15.7582L26.2554 8.1749H24.5964C24.2529 8.1749 23.9095 8.40843 23.795 8.75823L20.9349 15.7582H22.9374L23.3371 14.6502H25.7975L26.0265 15.7582H27.8ZM24.8826 10.2171L25.454 13.0751H23.8523L24.8826 10.2171Z" fill="#494E55"/>
</svg>
