<svg width="40" height="40" viewBox="0 0 40 40" fill="none" xmlns="http://www.w3.org/2000/svg">
<rect width="40" height="40" rx="5" fill="#389CFF"/>
<path d="M11.5663 33.3337C10.9663 33.3337 10.4442 33.1113 9.9999 32.6665C9.55563 32.2222 9.3335 31.7001 9.3335 31.1001V14.2337C9.3335 13.6337 9.55563 13.1113 9.9999 12.6665C10.4442 12.2222 10.9663 12.0001 11.5663 12.0001H14.8999V11.7665C14.8999 10.3446 15.3943 9.1393 16.3831 8.1505C17.3719 7.16117 18.5775 6.6665 19.9999 6.6665C21.4223 6.6665 22.6279 7.16117 23.6167 8.1505C24.6055 9.1393 25.0999 10.3446 25.0999 11.7665V12.0001H28.4335C29.0335 12.0001 29.5556 12.2222 29.9999 12.6665C30.4442 13.1113 30.6663 13.6337 30.6663 14.2337V31.1001C30.6663 31.7001 30.4442 32.2222 29.9999 32.6665C29.5556 33.1113 29.0335 33.3337 28.4335 33.3337H11.5663ZM11.5663 31.1001H28.4335V14.2337H25.0999V17.1001C25.0999 17.411 24.9943 17.6777 24.7831 17.9001C24.5719 18.1225 24.3108 18.2337 23.9999 18.2337C23.689 18.2337 23.4279 18.1225 23.2167 17.9001C23.0055 17.6777 22.8999 17.411 22.8999 17.1001V14.2337H17.0999V17.1001C17.0999 17.411 16.9943 17.6777 16.7831 17.9001C16.5719 18.1225 16.3108 18.2337 15.9999 18.2337C15.689 18.2337 15.4279 18.1225 15.2167 17.9001C15.0055 17.6777 14.8999 17.411 14.8999 17.1001V14.2337H11.5663V31.1001ZM17.0999 12.0001H22.8999V11.7665C22.8999 10.9665 22.6164 10.2889 22.0495 9.7337C21.4831 9.17797 20.7999 8.9001 19.9999 8.9001C19.1999 8.9001 18.5167 9.17797 17.9503 9.7337C17.3834 10.2889 17.0999 10.9665 17.0999 11.7665V12.0001Z" fill="white"/>
</svg>
