<svg width="32" height="24" viewBox="0 0 32 24" fill="none" xmlns="http://www.w3.org/2000/svg">
<path fill-rule="evenodd" clip-rule="evenodd" d="M28 1H4C2.34315 1 1 2.34315 1 4V20C1 21.6569 2.34315 23 4 23H28C29.6569 23 31 21.6569 31 20V4C31 2.34315 29.6569 1 28 1ZM4 0C1.79086 0 0 1.79086 0 4V20C0 22.2091 1.79086 24 4 24H28C30.2091 24 32 22.2091 32 20V4C32 1.79086 30.2091 0 28 0H4Z" fill="black" fill-opacity="0.16"/>
<path d="M1 7H31V10H1V7Z" fill="black" fill-opacity="0.16"/>
<path d="M3 14C3 13.4477 3.44772 13 4 13C4.55228 13 5 13.4477 5 14C5 14.5523 4.55228 15 4 15C3.44772 15 3 14.5523 3 14Z" fill="black" fill-opacity="0.16"/>
<path d="M6 14C6 13.4477 6.44772 13 7 13C7.55228 13 8 13.4477 8 14C8 14.5523 7.55228 15 7 15C6.44772 15 6 14.5523 6 14Z" fill="black" fill-opacity="0.16"/>
<path d="M9 14C9 13.4477 9.44772 13 10 13C10.5523 13 11 13.4477 11 14C11 14.5523 10.5523 15 10 15C9.44772 15 9 14.5523 9 14Z" fill="black" fill-opacity="0.16"/>
<path d="M12 14C12 13.4477 12.4477 13 13 13C13.5523 13 14 13.4477 14 14C14 14.5523 13.5523 15 13 15C12.4477 15 12 14.5523 12 14Z" fill="black" fill-opacity="0.16"/>
</svg>
